<?xml version="1.0" standalone="no"?>
<!DOCTYPE svg PUBLIC "-//W3C//DTD SVG 20010904//EN"
 "http://www.w3.org/TR/2001/REC-SVG-20010904/DTD/svg10.dtd">
<svg version="1.0" xmlns="http://www.w3.org/2000/svg"
 width="1024.000000pt" height="1024.000000pt" viewBox="0 0 1024.000000 1024.000000"
 preserveAspectRatio="xMidYMid meet">

<g transform="translate(0.000000,1024.000000) scale(0.100000,-0.100000)"
fill="#000000" stroke="none">
<path d="M0 5120 l0 -5120 5120 0 5120 0 0 5120 0 5120 -5120 0 -5120 0 0
-5120z m9515 5100 c3 -5 1 -10 -4 -10 -6 0 -11 5 -11 10 0 6 2 10 4 10 3 0 8
-4 11 -10z m-510 -1130 c-3 -5 -11 -10 -16 -10 -6 0 -7 5 -4 10 3 6 11 10 16
10 6 0 7 -4 4 -10z m-37 -40 c-7 -10 -14 -18 -15 -16 -6 6 9 36 18 36 5 0 4
-9 -3 -20z m2 -46 c0 -8 -4 -12 -10 -9 -5 3 -10 10 -10 16 0 5 5 9 10 9 6 0
10 -7 10 -16z m-3975 -1243 c118 -24 266 -71 426 -135 291 -115 593 -175 744
-147 32 6 88 25 123 41 35 17 66 30 68 30 13 0 1 -31 -16 -43 -11 -8 -17 -17
-12 -21 4 -4 1 -6 -7 -4 -19 4 -83 -81 -133 -180 -29 -56 -49 -84 -62 -87 -12
-2 -77 -13 -146 -25 -69 -12 -165 -32 -215 -44 l-90 -21 -13 -80 c-7 -44 -11
-119 -9 -166 3 -73 8 -97 35 -152 99 -201 371 -301 642 -237 234 56 401 193
556 456 19 32 28 7 12 -34 -8 -21 -14 -54 -12 -73 3 -28 2 -29 -4 -9 -6 20
-11 12 -26 -50 -10 -41 -19 -109 -21 -150 l-4 -75 9 75 c5 41 14 89 19 105 8
24 9 21 4 -20 -24 -184 14 -275 117 -275 81 0 168 77 248 220 20 36 37 67 37
70 1 5 10 27 80 184 56 126 70 126 62 0 -3 -55 -10 -110 -16 -124 -8 -20 -9
-16 -6 25 4 49 4 50 -5 10 -5 -22 -8 -71 -8 -110 l1 -70 6 60 6 60 7 -83 c13
-174 97 -265 266 -293 80 -13 135 -6 162 21 28 28 36 132 16 224 -9 42 -23
110 -32 152 l-16 75 45 92 c25 51 48 102 52 115 4 14 13 22 23 20 11 -2 25
-39 48 -128 33 -132 49 -261 31 -257 -6 1 -12 -16 -14 -38 -6 -63 -60 -217
-99 -281 -113 -189 -298 -286 -455 -241 -99 29 -154 87 -205 218 -15 38 -32
68 -38 66 -6 -2 -18 -19 -28 -38 -18 -38 -105 -140 -158 -186 -75 -65 -141
-80 -232 -54 -91 26 -131 88 -134 210 -2 46 -7 88 -11 92 -5 5 -54 -29 -113
-79 -218 -184 -362 -252 -528 -252 -204 1 -376 108 -456 282 -30 64 -39 96
-63 208 -22 107 -16 252 16 348 10 29 15 54 12 57 -13 8 -437 -143 -646 -229
-49 -21 -195 -91 -325 -156 -336 -169 -380 -187 -527 -205 l-52 -7 -16 -56
c-9 -32 -26 -91 -37 -132 -29 -100 -101 -280 -144 -359 -108 -197 -249 -311
-443 -360 -106 -26 -176 -27 -277 -1 -166 42 -314 138 -375 244 -57 100 -35
114 65 42 86 -62 136 -81 251 -97 145 -20 324 14 470 89 84 44 211 166 273
262 23 36 45 70 49 75 5 6 9 17 11 25 2 8 7 17 12 20 13 8 38 102 45 173 8 77
-8 145 -63 251 -30 59 -36 84 -40 151 -6 123 28 268 73 305 20 17 29 7 45 -53
22 -80 61 -131 127 -163 54 -27 66 -29 168 -28 194 1 388 61 1234 383 l105 39
-35 15 c-19 8 -72 31 -119 52 -265 115 -432 163 -610 175 l-115 7 85 1 c100 2
212 -16 330 -53 109 -35 464 -176 468 -187 5 -11 52 -10 52 0 0 5 -17 16 -37
24 -21 9 -99 42 -173 73 -298 125 -450 165 -624 165 -226 0 -384 -79 -473
-237 -54 -98 -67 -92 -38 17 8 30 12 63 9 74 -4 13 -2 16 6 11 9 -5 10 -1 5
15 -5 14 -3 20 3 16 6 -3 8 2 5 13 -7 26 47 127 98 185 87 99 189 156 330 186
65 14 250 4 364 -19z m-480 -311 c-38 -10 -72 -16 -74 -15 -6 6 92 34 119 34
14 0 -6 -8 -45 -19z m1795 6 c0 -2 -8 -10 -17 -17 -16 -13 -17 -12 -4 4 13 16
21 21 21 13z m-1881 -30 c-2 -2 -15 -9 -29 -15 -24 -11 -24 -11 -6 3 16 13 49
24 35 12z m1841 -26 c-6 -11 -13 -20 -16 -20 -2 0 0 9 6 20 6 11 13 20 16 20
2 0 0 -9 -6 -20z m-1950 -33 c0 -2 -12 -14 -27 -28 l-28 -24 24 28 c23 25 31
32 31 24z m1881 -94 c-12 -20 -14 -14 -5 12 4 9 9 14 11 11 3 -2 0 -13 -6 -23z
m-18 -38 c-3 -9 -8 -14 -10 -11 -3 3 -2 9 2 15 9 16 15 13 8 -4z m-26 -41 c-3
-3 -12 -4 -19 -1 -8 3 -5 6 6 6 11 1 17 -2 13 -5z m-72 -15 c-51 -10 -92 -10
-50 1 17 4 44 8 60 8 25 0 24 -2 -10 -9z m-92 -16 c-7 -2 -19 -2 -25 0 -7 3
-2 5 12 5 14 0 19 -2 13 -5z m-50 -10 c-7 -2 -19 -2 -25 0 -7 3 -2 5 12 5 14
0 19 -2 13 -5z m-50 -10 c-7 -2 -19 -2 -25 0 -7 3 -2 5 12 5 14 0 19 -2 13 -5z
m-50 -10 c-7 -2 -19 -2 -25 0 -7 3 -2 5 12 5 14 0 19 -2 13 -5z m-63 -13 c-14
-4 -34 -8 -45 -8 -16 0 -15 2 5 8 14 4 34 8 45 8 16 0 15 -2 -5 -8z m-4377
-145 c-10 -13 -22 -25 -27 -25 -5 0 1 11 14 25 30 32 36 32 13 0z m4057 16 c0
-5 -11 -12 -24 -15 -13 -3 -32 -8 -43 -11 -10 -3 0 3 22 14 49 24 45 23 45 12z
m-4515 -301 c-16 -11 -34 -20 -40 -20 -16 1 38 40 55 40 8 0 2 -9 -15 -20z
m-75 -47 c-1 -18 -17 -32 -45 -39 -17 -4 -38 -15 -48 -25 -25 -27 -51 -26 -37
1 6 11 17 20 25 20 8 0 18 7 23 16 6 11 17 15 30 12 13 -4 23 0 26 8 6 15 26
20 26 7z m7097 -105 c-3 -8 -6 -5 -6 6 -1 11 2 17 5 13 3 -3 4 -12 1 -19z
m-7247 -25 c-14 -9 -28 -21 -32 -27 -4 -6 -10 -7 -14 -4 -7 8 14 32 36 41 30
11 34 7 10 -10z m7231 -20 c-12 -20 -14 -14 -5 12 4 9 9 14 11 11 3 -2 0 -13
-6 -23z m-7301 -23 c-24 -15 -36 -11 -14 4 10 8 21 12 24 10 2 -3 -2 -9 -10
-14z m3550 -22 c-65 -30 -138 -48 -190 -47 -40 1 -37 3 20 9 36 5 94 19 130
33 79 30 101 33 40 5z m-3570 -12 c0 -11 -19 -15 -25 -6 -3 5 1 10 9 10 9 0
16 -2 16 -4z m5950 -19 c0 -2 -17 -19 -37 -38 l-38 -34 34 38 c33 34 41 42 41
34z m26 -24 c-10 -10 -19 5 -10 18 6 11 8 11 12 0 2 -7 1 -15 -2 -18z m574 3
c0 -3 -4 -8 -10 -11 -5 -3 -10 -1 -10 4 0 6 5 11 10 11 6 0 10 -2 10 -4z
m-3253 -78 c-3 -8 -6 -5 -6 6 -1 11 2 17 5 13 3 -3 4 -12 1 -19z m3933 -2 c0
-2 -8 -10 -17 -17 -16 -13 -17 -12 -4 4 13 16 21 21 21 13z m-7362 -48 c-2
-13 -7 -28 -11 -35 -4 -6 -5 -17 -2 -25 5 -13 -32 -44 -42 -35 -5 6 18 49 31
58 5 4 6 19 4 33 -4 18 -1 26 9 26 8 0 13 -8 11 -22z m6602 8 c0 -2 -8 -10
-17 -17 -16 -13 -17 -12 -4 4 13 16 21 21 21 13z m720 -10 c0 -2 -8 -10 -17
-17 -16 -13 -17 -12 -4 4 13 16 21 21 21 13z m-3913 -28 c-3 -8 -6 -5 -6 6 -1
11 2 17 5 13 3 -3 4 -12 1 -19z m1914 -124 c78 -20 212 -20 289 1 30 8 56 13
58 10 7 -6 -69 -25 -149 -37 -62 -9 -89 -8 -153 5 -72 15 -206 68 -206 82 0 3
22 -6 48 -19 27 -14 77 -32 113 -42z m1159 42 c0 -2 -7 -7 -16 -10 -8 -3 -12
-2 -9 4 6 10 25 14 25 6z m505 -44 c70 -4 90 -1 143 21 72 29 80 27 20 -5 -82
-41 -253 -35 -310 12 -21 17 -19 17 21 -2 31 -15 70 -23 126 -26z m-1275 28
c-8 -5 -19 -10 -25 -10 -5 0 -3 5 5 10 8 5 20 10 25 10 6 0 3 -5 -5 -10z m525
-18 c-3 -3 -11 0 -18 7 -9 10 -8 11 6 5 10 -3 15 -9 12 -12z m205 12 c0 -3
-16 -12 -35 -20 -37 -15 -108 -18 -140 -4 -12 5 1 6 35 3 46 -4 92 5 138 26 1
0 2 -1 2 -5z m-6483 -22 c7 -4 10 -17 6 -30 -5 -19 -12 -22 -44 -20 -22 1 -39
6 -39 11 0 5 7 7 14 4 11 -4 13 -1 9 10 -5 12 -2 15 10 10 11 -4 17 -1 17 8 0
17 9 19 27 7z m-87 -36 c0 -2 -7 -7 -16 -10 -8 -3 -12 -2 -9 4 6 10 25 14 25
6z m3471 -33 c-12 -20 -14 -14 -5 12 4 9 9 14 11 11 3 -2 0 -13 -6 -23z
m-3622 -107 c9 -11 9 -16 0 -22 -8 -5 -9 -3 -4 6 5 9 1 11 -16 6 -13 -3 -18
-3 -11 0 6 3 10 10 6 15 -9 15 12 10 25 -5z m3581 6 c0 -5 -7 -17 -15 -28 -14
-18 -14 -17 -4 9 12 27 19 34 19 19z m-62 -120 c-23 -39 -76 -109 -61 -82 19
36 75 120 79 120 3 0 -5 -17 -18 -38z m-98 -135 c0 -2 -12 -14 -27 -28 l-28
-24 24 28 c23 25 31 32 31 24z m-98 -89 c-6 -7 -25 -22 -44 -32 -39 -23 -32
-13 14 20 38 26 45 29 30 12z m-87 -58 c-3 -5 -12 -10 -18 -10 -7 0 -6 4 3 10
19 12 23 12 15 0z m-40 -19 c-19 -17 -121 -49 -194 -60 -76 -12 -196 -2 -245
20 -18 8 -17 9 6 4 113 -22 177 -25 253 -11 44 8 103 23 130 34 57 24 63 25
50 13z m-475 -23 c10 -6 7 -7 -10 -2 -14 3 -32 11 -40 16 -10 6 -7 7 10 2 14
-3 32 -11 40 -16z m2210 -41 c0 -2 -7 -18 -16 -36 -14 -28 -16 -96 -19 -509
-2 -274 0 -426 5 -357 4 66 8 268 9 450 1 181 4 331 7 334 3 3 4 -189 2 -427
-2 -238 0 -432 5 -432 4 0 7 5 7 10 0 22 105 154 151 190 62 48 141 86 225
107 117 29 265 -9 344 -89 43 -43 93 -148 87 -185 -4 -27 -4 -27 -6 4 0 17 -5
34 -9 37 -4 2 -6 -11 -4 -30 3 -20 11 -38 18 -41 11 -4 14 -32 12 -132 l-2
-126 -3 123 c-2 67 -7 122 -11 122 -4 0 -6 -66 -5 -147 2 -82 4 -256 5 -388 2
-147 7 -247 14 -258 8 -14 10 -3 8 45 l-3 63 9 -66 c13 -101 40 -143 113 -174
21 -9 36 -19 33 -23 -2 -4 -51 -4 -108 1 -57 4 -174 5 -260 2 -158 -6 -194 1
-120 23 21 7 47 21 57 32 10 11 22 17 26 14 5 -3 6 3 2 12 -4 11 -2 15 4 11 6
-4 16 6 22 22 16 38 18 828 2 886 -32 118 -119 185 -243 185 -149 0 -251 -83
-359 -290 l-34 -65 0 -347 c0 -218 4 -351 10 -357 7 -7 9 7 8 42 l-2 52 9 -53
c12 -77 61 -134 134 -157 11 -3 16 -9 10 -14 -5 -5 -55 -5 -114 1 -58 5 -163
6 -235 3 -71 -4 -143 -8 -159 -9 -42 -2 -43 20 -2 28 20 4 48 18 64 31 16 13
32 21 36 18 4 -4 4 1 0 11 -5 13 -4 17 3 13 17 -11 31 46 38 153 7 113 7 105
1 153 -4 27 -2 36 7 30 9 -5 9 -3 0 9 -7 8 -10 18 -7 21 10 10 9 87 -1 87 -7
0 -7 3 0 8 10 7 13 90 3 108 -3 5 -4 212 -3 459 1 248 -2 468 -7 489 -5 21
-18 52 -30 69 -24 33 -89 66 -130 67 -42 0 -34 15 20 35 26 10 112 49 192 86
123 58 190 81 190 66z m-3 -78 c2 -16 -1 -19 -9 -11 -5 5 -7 15 -4 21 10 15
12 14 13 -10z m1643 -130 c58 -26 96 -63 126 -121 26 -52 32 -77 8 -38 -15 26
-15 25 -1 -35 18 -72 13 -71 -25 5 -67 132 -150 182 -246 148 -38 -14 -43 -14
-38 -1 3 8 6 17 6 19 0 9 85 44 105 44 11 0 40 -10 65 -21z m-4175 0 c42 -6
120 -24 172 -40 140 -43 194 -38 252 25 14 14 30 26 38 26 16 0 17 5 -8 -60
-19 -51 -21 -69 -16 -225 3 -93 2 -159 -2 -145 -16 49 -70 146 -105 187 -50
58 -171 136 -253 164 -93 32 -218 32 -285 2 -61 -28 -112 -69 -143 -115 -32
-49 -44 -149 -22 -198 l16 -35 -4 50 -4 50 9 -43 c14 -67 50 -131 105 -187 59
-61 116 -98 290 -189 269 -141 422 -264 484 -387 17 -34 31 -69 30 -78 0 -13
-2 -13 -7 2 -4 10 -7 -17 -6 -60 3 -124 -19 -202 -87 -311 -8 -12 -20 -22 -28
-22 -8 0 -12 -3 -8 -6 9 -9 -24 -43 -84 -84 -61 -42 -102 -61 -199 -93 -120
-39 -314 -24 -434 34 -22 10 -45 19 -51 19 -6 0 -20 9 -32 19 -25 24 -83 54
-90 47 -3 -3 -21 1 -39 9 -20 8 -36 10 -39 4 -4 -5 2 -9 11 -9 16 0 16 -1 -1
-20 -10 -11 -23 -17 -29 -13 -6 3 -8 3 -4 -2 8 -9 -9 -35 -22 -35 -5 0 -7 18
-5 40 2 22 -1 40 -6 40 -5 0 -9 5 -9 10 0 6 8 10 18 10 10 0 13 3 6 8 -18 12
-26 45 -12 53 9 6 9 11 0 21 -6 8 -10 24 -7 36 2 12 0 24 -4 26 -4 3 -8 27 -8
53 -1 26 -9 65 -17 85 -34 80 -11 93 29 17 46 -90 81 -140 146 -214 85 -95
151 -148 235 -187 66 -32 74 -33 189 -33 109 0 125 2 176 26 31 15 75 43 98
64 22 21 41 35 41 32 0 -4 -10 -15 -22 -27 -12 -11 -17 -20 -11 -20 16 0 51
52 46 68 -3 7 1 10 9 7 14 -6 26 11 50 70 16 41 17 196 1 213 -16 17 -17 36
-1 26 7 -4 8 -3 4 4 -4 7 -13 12 -21 12 -7 0 -18 12 -23 28 -12 31 -129 152
-149 152 -3 0 -21 11 -39 25 -18 14 -35 25 -39 25 -3 0 -24 12 -48 27 -23 14
-44 26 -47 26 -3 -1 -9 2 -15 7 -24 19 -105 60 -105 53 0 -4 -4 -3 -8 3 -4 6
-64 47 -134 91 -70 44 -125 83 -121 87 3 3 0 6 -7 6 -26 0 -159 168 -144 182
2 3 -2 20 -9 39 -16 39 -15 188 2 232 7 17 7 27 1 27 -18 0 27 75 72 121 68
70 190 129 303 148 72 12 94 12 180 0z m462 -131 c-3 -8 -6 -5 -6 6 -1 11 2
17 5 13 3 -3 4 -12 1 -19z m7033 4 c0 -4 -10 -13 -22 -21 -23 -14 -23 -14 -4
8 20 22 26 25 26 13z m-7033 -154 c-2 -13 -4 -3 -4 22 0 25 2 35 4 23 2 -13 2
-33 0 -45z m5358 -179 c49 -14 115 -77 115 -110 0 -17 -3 -20 -9 -11 -6 9 -10
2 -15 -25 -9 -54 -56 -118 -86 -118 -18 0 -31 12 -55 51 -81 136 -119 152
-188 80 -58 -60 -162 -262 -177 -344 -7 -39 -10 -161 -9 -315 2 -271 6 -337
20 -337 4 0 5 7 2 17 -4 11 -3 14 5 9 7 -4 12 -15 12 -25 0 -34 59 -100 101
-112 38 -12 49 -24 28 -31 -6 -2 -52 0 -102 5 -76 7 -221 5 -391 -6 -38 -3
-45 19 -8 26 16 3 44 19 63 34 18 15 35 26 38 23 3 -3 10 11 17 30 17 51 32
120 25 116 -3 -2 -6 6 -6 19 0 15 5 21 14 17 10 -4 12 -1 5 9 -5 8 -10 129
-11 269 -1 140 -2 255 -3 255 0 0 -2 27 -4 60 -7 120 -28 185 -69 207 -12 6
-43 17 -69 22 -25 6 -47 15 -48 20 0 5 36 21 82 36 46 15 129 50 185 78 57 29
109 52 118 52 11 0 15 -10 14 -37 0 -31 -2 -34 -9 -18 -7 16 -9 13 -9 -17 -1
-27 3 -38 14 -38 12 0 15 -19 15 -111 0 -71 4 -108 10 -104 6 3 10 13 10 20 0
22 97 182 137 226 40 44 124 89 167 89 17 0 49 -5 71 -11z m-4264 -19 c35 -10
85 -33 110 -49 76 -48 146 -171 136 -238 -4 -25 -4 -24 -6 7 -1 19 -5 40 -9
47 -4 6 -6 -182 -4 -418 2 -326 6 -437 16 -466 13 -38 14 -37 10 32 -2 63 -2
65 4 18 9 -62 39 -107 75 -111 31 -4 95 59 122 119 10 21 22 39 27 39 13 0 10
-8 -24 -74 -82 -154 -226 -227 -308 -156 -13 11 -26 20 -31 20 -12 0 -69 82
-63 92 3 4 1 8 -4 8 -5 0 -10 24 -11 52 -1 29 -5 56 -10 61 -5 5 -7 24 -4 43
7 49 -12 43 -45 -13 -39 -68 -141 -172 -208 -213 -79 -48 -183 -80 -258 -80
-69 0 -139 16 -131 31 4 5 -3 9 -14 9 -12 0 -33 14 -48 32 -16 18 -39 43 -53
56 -18 18 -21 25 -11 31 10 6 9 10 -4 15 -15 5 -17 16 -11 72 3 36 13 79 21
94 19 38 19 46 -2 29 -15 -13 -15 -12 -4 9 7 12 16 20 21 17 5 -3 12 0 16 6 4
8 3 9 -4 5 -31 -19 -6 17 42 61 68 62 160 110 406 211 107 44 221 92 254 106
l58 26 -4 137 c-3 117 -7 144 -26 180 -43 82 -128 126 -242 126 -112 0 -229
-52 -290 -126 -21 -27 -25 -44 -30 -129 -6 -110 -10 -118 -72 -118 -53 0 -82
42 -76 110 3 27 2 47 -3 45 -22 -14 9 41 43 76 72 74 211 145 341 173 96 21
233 20 308 -4z m2874 5 c113 -30 192 -90 239 -182 20 -39 21 -68 1 -33 -17 30
-18 26 -5 -20 6 -21 10 -193 10 -441 0 -342 2 -412 15 -442 17 -42 26 -48 18
-14 -4 16 0 13 18 -13 33 -48 67 -51 108 -9 18 17 43 53 57 80 13 27 29 49 34
49 17 0 12 -12 -35 -92 -97 -167 -227 -210 -332 -110 -38 35 -81 102 -67 102
4 0 2 6 -3 13 -9 11 -16 76 -16 144 0 42 -12 33 -73 -59 -134 -201 -375 -303
-561 -238 -56 19 -123 72 -123 96 0 7 -6 14 -12 16 -14 5 -17 125 -6 205 10
80 84 162 208 231 66 37 542 232 567 232 10 0 13 28 13 128 0 156 -14 205 -72
258 -60 54 -100 67 -198 67 -73 1 -95 -4 -161 -31 -125 -53 -159 -104 -151
-225 6 -94 -8 -117 -69 -117 -64 0 -101 63 -83 142 4 18 8 42 9 53 5 52 199
167 345 205 93 24 243 26 325 5z m-3138 -61 c-3 -3 -12 -4 -19 -1 -8 3 -5 6 6
6 11 1 17 -2 13 -5z m3073 -40 c0 -2 -9 0 -20 6 -11 6 -20 13 -20 16 0 2 9 0
20 -6 11 -6 20 -13 20 -16z m-2874 -6 l19 -23 -25 20 c-14 11 -27 21 -29 22
-2 2 0 3 6 3 5 0 18 -10 29 -22z m1422 15 c-16 -2 -40 -2 -55 0 -16 2 -3 4 27
4 30 0 43 -2 28 -4z m1487 -33 c10 -11 16 -20 13 -20 -3 0 -13 9 -23 20 -10
11 -16 20 -13 20 3 0 13 -9 23 -20z m701 -86 c18 -14 18 -14 -6 -3 -31 14 -36
19 -24 19 6 0 19 -7 30 -16z m-1179 -81 c-2 -16 -4 -5 -4 22 0 28 2 40 4 28 2
-13 2 -35 0 -50z m770 0 c-3 -10 -5 -2 -5 17 0 19 2 27 5 18 2 -10 2 -26 0
-35z m1159 12 c-11 -8 -27 -15 -35 -15 -9 1 -2 7 14 15 39 18 44 18 21 0z
m-4809 -37 c-3 -7 -5 -2 -5 12 0 14 2 19 5 13 2 -7 2 -19 0 -25z m773 -225 c0
-119 -3 -213 -7 -210 -3 4 -6 91 -5 194 1 104 2 198 2 211 0 12 2 22 5 22 3 0
5 -98 5 -217z m750 197 c-6 -11 -13 -20 -16 -20 -2 0 0 9 6 20 6 11 13 20 16
20 2 0 0 -9 -6 -20z m2140 -46 c0 -13 -3 -24 -7 -24 -5 0 -8 13 -8 29 0 16 3
27 8 24 4 -2 7 -15 7 -29z m-814 -30 c-24 -22 -37 -25 -69 -21 -22 3 -45 11
-51 17 -8 8 -4 9 18 0 33 -12 90 -4 107 16 6 8 14 14 18 14 3 0 -7 -12 -23
-26z m-2866 11 c0 -2 -13 -11 -30 -20 -33 -17 -68 -19 -90 -5 -11 7 -7 8 15 4
18 -3 45 1 65 9 43 19 40 18 40 12z m1505 -12 c-4 -10 -11 -103 -15 -208 l-8
-190 3 190 c2 171 7 225 22 225 3 0 2 -8 -2 -17z m2172 -50 c-3 -10 -5 -2 -5
17 0 19 2 27 5 18 2 -10 2 -26 0 -35z m3 -53 c0 -11 -2 -20 -4 -20 -2 0 -6 9
-9 20 -3 11 -1 20 4 20 5 0 9 -9 9 -20z m717 -107 c-2 -21 -4 -4 -4 37 0 41 2
58 4 38 2 -21 2 -55 0 -75z m-720 45 c2 -17 0 -19 -7 -8 -5 8 -6 18 -4 22 8
12 10 10 11 -14z m-1350 -20 c-3 -8 -6 -5 -6 6 -1 11 2 17 5 13 3 -3 4 -12 1
-19z m2070 -105 c-3 -10 -5 -4 -5 12 0 17 2 24 5 18 2 -7 2 -21 0 -30z m-730
-5 c-3 -8 -6 -5 -6 6 -1 11 2 17 5 13 3 -3 4 -12 1 -19z m-2880 -113 c-5 -88
-13 -90 -14 -5 -1 39 2 70 8 70 5 0 8 -28 6 -65z m3610 -17 c-2 -18 -4 -6 -4
27 0 33 2 48 4 33 2 -15 2 -42 0 -60z m-2910 -70 c-2 -18 -4 -4 -4 32 0 36 2
50 4 33 2 -18 2 -48 0 -65z m850 40 c-3 -8 -6 -5 -6 6 -1 11 2 17 5 13 3 -3 4
-12 1 -19z m2060 -150 c-2 -29 -3 -8 -3 47 0 55 1 79 3 53 2 -26 2 -71 0 -100z
m-2058 70 c0 -27 -2 -29 -8 -13 -5 11 -6 26 -4 33 8 21 13 13 12 -20z m-1799
-37 c0 -6 -11 -23 -25 -38 l-26 -28 22 38 c21 37 29 45 29 28z m954 -7 c3 -8
2 -12 -4 -9 -6 3 -10 10 -10 16 0 14 7 11 14 -7z m1926 7 c0 -5 -9 -19 -21
-32 l-20 -24 17 33 c19 33 24 38 24 23z m-2630 -11 c0 -5 -5 -10 -11 -10 -5 0
-7 5 -4 10 3 6 8 10 11 10 2 0 4 -4 4 -10z m2887 -82 c-2 -13 -4 -5 -4 17 -1
22 1 32 4 23 2 -10 2 -28 0 -40z m-297 28 c0 -2 -8 -10 -17 -17 -16 -13 -17
-12 -4 4 13 16 21 21 21 13z m-250 -211 c-14 -8 -29 -14 -35 -14 -5 0 1 6 15
14 14 8 30 14 35 14 6 0 -1 -6 -15 -14z m645 5 c-23 -37 -155 -65 -192 -42 -7
4 15 6 50 5 52 -3 69 0 102 21 47 29 48 29 40 16z m-2901 -11 c-19 -31 -147
-52 -181 -31 -7 4 15 6 50 4 47 -2 70 1 97 16 44 25 42 24 34 11z m466 1 c-14
-4 -56 -8 -95 -7 l-70 0 60 7 c33 4 76 7 95 7 31 1 32 0 10 -7z m810 0 c0 -6
-30 -9 -72 -8 l-73 2 70 6 c39 4 71 7 73 8 1 1 2 -2 2 -8z m58 3 c-10 -2 -26
-2 -35 0 -10 3 -2 5 17 5 19 0 27 -2 18 -5z m2066 -1 c3 -5 -46 -8 -107 -9
-95 0 -102 1 -47 7 99 10 148 11 154 2z m-4064 -12 c-8 -5 -19 -10 -25 -10 -5
0 -3 5 5 10 8 5 20 10 25 10 6 0 3 -5 -5 -10z m1417 4 c-7 -7 -239 -6 -246 1
-2 3 53 5 124 5 71 0 126 -3 122 -6z m781 -1 c-32 -2 -86 -2 -120 0 -35 2 -9
3 57 3 66 0 94 -1 63 -3z m1635 0 c-7 -2 -19 -2 -25 0 -7 3 -2 5 12 5 14 0 19
-2 13 -5z m440 0 c-34 -2 -93 -2 -130 0 -37 2 -9 3 62 3 72 0 102 -1 68 -3z
m-1431 -19 c-45 -20 -139 -28 -187 -15 -35 9 -32 9 30 5 45 -3 88 0 120 9 65
19 78 19 37 1z m-2885 0 c-3 -3 -12 -4 -19 -1 -8 3 -5 6 6 6 11 1 17 -2 13 -5z
m-88 -20 c8 -7 -94 -2 -119 6 -15 5 4 6 45 3 39 -3 72 -7 74 -9z m44 9 c-7 -2
-19 -2 -25 0 -7 3 -2 5 12 5 14 0 19 -2 13 -5z m6307 -148 c-7 -8 -17 -15 -23
-15 -6 0 -2 7 9 15 25 19 30 19 14 0z m-10035 -315 c-3 -5 -10 -10 -16 -10 -5
0 -9 5 -9 10 0 6 7 10 16 10 8 0 12 -4 9 -10z m5686 -52 c35 1 37 -1 43 -36 6
-38 7 -115 1 -97 -2 6 -6 23 -9 38 -4 15 -10 25 -15 23 -5 -3 -16 3 -26 14
-23 26 -88 43 -128 34 -39 -8 -103 -40 -113 -55 -4 -8 -3 -9 4 -5 6 4 3 -13
-8 -36 -14 -31 -20 -65 -20 -124 0 -138 39 -195 138 -201 68 -4 123 22 159 76
26 39 37 26 24 -29 -5 -19 -9 -27 -10 -17 -1 15 -7 13 -41 -12 -67 -49 -90
-54 -167 -41 -50 8 -77 19 -103 41 -19 16 -27 26 -17 23 13 -5 16 -2 11 10 -3
9 -10 16 -15 16 -10 0 -23 107 -22 177 1 43 -1 50 -12 40 -9 -8 -10 -16 -3
-24 7 -9 7 -13 0 -13 -6 0 -9 -7 -6 -15 4 -8 1 -15 -5 -15 -7 0 -9 -10 -5 -27
4 -22 3 -25 -5 -13 -15 21 -14 48 4 107 33 111 140 181 255 167 30 -4 71 -7
91 -6z m1907 -45 c10 -60 7 -80 -8 -52 -32 57 -45 64 -122 64 l-73 0 -3 -87
-3 -88 34 0 c41 0 65 17 69 50 2 14 8 25 13 25 9 0 25 -173 18 -184 -6 -9 -14
8 -16 37 -1 17 -4 28 -6 26 -3 -2 -14 3 -27 11 -19 12 -28 12 -66 1 -23 -8
-37 -14 -30 -15 8 -1 12 -25 12 -86 0 -73 3 -86 19 -95 43 -23 130 -2 174 42
17 17 33 26 39 20 13 -13 -32 -56 -80 -75 -47 -19 -137 -23 -147 -6 -4 5 -18
14 -31 19 -18 7 -24 17 -24 40 0 19 -4 29 -10 25 -6 -4 -8 -16 -4 -27 4 -13 2
-18 -4 -14 -8 5 -27 -37 -24 -54 0 -3 -11 -6 -24 -6 -30 -2 -31 8 -2 21 31 13
35 42 37 222 1 168 -6 199 -44 209 -54 14 -5 24 130 27 77 1 152 4 167 5 24 2
27 -2 36 -55z m-4734 -20 c157 -194 203 -252 218 -274 16 -23 16 -20 13 61 -2
47 -5 120 -6 162 l-2 78 -33 12 c-48 17 -32 28 41 28 63 0 93 -13 56 -25 -10
-3 -22 -16 -25 -28 -3 -12 -6 -113 -6 -224 0 -120 -4 -203 -9 -203 -6 0 -13
19 -16 43 -5 34 -18 55 -65 104 -46 49 -60 59 -71 50 -11 -10 -11 -9 -1 4 11
14 8 21 -17 42 -17 14 -27 28 -24 31 4 3 1 6 -5 6 -5 0 -20 16 -32 35 -12 19
-28 35 -36 35 -8 0 -14 7 -14 15 0 8 -9 15 -20 15 -19 0 -24 10 -21 39 2 7 -2
10 -7 7 -6 -3 -12 1 -16 9 -3 9 -19 15 -40 15 -34 0 -52 11 -39 24 3 3 32 6
64 6 l58 0 55 -67z m774 -65 c28 -73 65 -170 82 -215 21 -55 40 -89 58 -102
15 -11 23 -23 19 -27 -4 -5 -16 -3 -25 4 -9 7 -27 16 -39 21 -11 6 -24 15 -28
21 -3 5 -11 7 -17 4 -6 -4 -8 -2 -5 3 4 6 0 23 -8 39 -7 15 -12 31 -9 36 3 4
1 8 -4 8 -5 0 -9 7 -10 15 -1 8 -3 22 -4 30 -1 8 -5 15 -9 15 -6 0 -39 88 -44
119 -1 8 -7 17 -13 19 -6 2 -8 -6 -5 -20 3 -13 3 -20 0 -17 -4 3 -8 15 -10 26
-1 12 -9 29 -17 39 -13 16 -13 17 2 11 10 -3 20 -1 24 6 4 7 4 9 -1 5 -7 -7
-45 33 -45 48 0 12 32 44 45 44 7 0 35 -60 63 -132z m562 124 c0 -4 -15 -12
-32 -17 l-33 -10 0 -200 0 -200 32 -15 c18 -8 33 -19 33 -24 0 -13 -49 3 -81
26 -32 24 -31 10 -31 235 1 104 -3 146 -13 160 -13 17 -14 16 -13 -7 1 -14 5
-30 10 -37 5 -6 5 -14 1 -16 -5 -3 -6 -35 -3 -70 3 -36 3 -64 -1 -61 -3 2 -6
-37 -5 -87 1 -49 -2 -97 -6 -107 -4 -9 -7 74 -7 185 0 111 -2 207 -5 212 -4 5
-20 12 -36 16 -17 4 -28 11 -24 16 6 11 214 12 214 1z m423 1 c4 -4 -6 -12
-23 -19 l-30 -13 -1 -186 c-1 -102 -2 -191 -3 -197 -1 -7 16 -17 37 -22 61
-16 145 17 173 68 12 21 24 34 27 30 8 -16 -5 -74 -17 -72 -6 2 -27 -7 -46
-18 -72 -44 -131 -49 -179 -13 -20 15 -31 32 -32 48 0 14 -3 42 -6 61 -6 41
-6 41 1 103 2 26 1 47 -3 47 -4 0 -5 20 -1 45 5 31 3 48 -5 55 -9 8 -12 -29
-13 -161 -1 -94 -4 -174 -7 -177 -3 -3 -5 83 -5 190 l0 196 -30 12 c-16 7 -30
16 -30 21 0 10 183 12 193 2z m1595 -17 c6 -14 41 -102 77 -197 79 -206 89
-226 115 -234 27 -9 25 -25 -3 -25 -12 0 -30 9 -40 20 -10 12 -22 18 -27 15
-5 -3 -12 4 -15 16 -10 30 -37 59 -48 52 -6 -4 -7 -1 -3 6 13 20 -2 58 -24 64
-11 3 -20 1 -20 -4 0 -16 -120 -11 -137 6 -8 9 -18 13 -22 9 -3 -4 -1 -9 5
-11 8 -3 6 -16 -6 -42 -11 -20 -22 -50 -26 -65 -6 -24 -3 -28 25 -39 38 -14
40 -27 5 -27 -19 0 -28 7 -37 30 l-11 30 -33 -32 c-25 -24 -33 -28 -33 -15 0
9 6 17 13 17 7 0 18 9 25 20 15 24 128 296 149 360 25 74 50 91 71 46z m717 8
c35 -16 65 -65 65 -106 0 -29 -40 -100 -60 -106 -9 -3 -6 4 8 17 12 12 22 25
22 28 0 4 -12 -4 -26 -18 -14 -13 -29 -23 -32 -22 -30 11 -58 -32 -28 -43 7
-3 35 -37 62 -76 27 -39 64 -83 83 -99 37 -30 37 -45 -1 -35 -20 5 -128 99
-128 111 0 3 -8 13 -17 23 -10 10 -25 28 -33 40 -8 12 -21 22 -30 22 -13 0
-13 1 0 10 13 8 13 10 -1 10 -9 0 -30 3 -46 6 l-30 6 5 -79 c5 -89 13 -110 48
-123 31 -12 33 -34 2 -24 -13 4 -38 18 -55 32 -36 26 -34 14 -35 204 -1 15 -5
25 -10 22 -5 -3 -8 -11 -7 -17 4 -31 -2 -87 -9 -87 -4 0 -8 61 -9 136 -2 135
-9 164 -39 164 -8 0 -14 5 -14 10 0 6 54 10 141 10 108 0 149 -4 174 -16z
m-4155 -254 c0 -172 4 -190 42 -190 10 0 18 -4 18 -10 0 -16 -36 -12 -59 8
-20 16 -22 27 -24 205 -2 153 0 184 10 170 9 -12 13 -65 13 -183z m747 165 c1
-19 -12 -66 -27 -103 l-29 -67 52 -3 c32 -2 61 -10 77 -22 l25 -20 -79 0 c-63
0 -82 3 -93 18 -13 15 -14 15 -9 -10 4 -16 -2 -45 -15 -74 -19 -46 -19 -49 -3
-61 10 -7 24 -13 31 -13 7 0 13 -4 13 -10 0 -5 -11 -10 -24 -10 -17 0 -28 9
-37 29 l-13 29 -21 -28 c-14 -19 -25 -26 -34 -20 -10 6 -9 9 7 14 20 7 31 25
72 128 13 31 26 56 29 54 3 -2 7 6 7 17 2 20 62 187 68 187 1 0 2 -16 3 -35z
m3383 -135 c-8 -5 -17 -7 -19 -4 -3 3 1 9 9 14 8 5 17 7 19 4 3 -3 -1 -9 -9
-14z m-3280 -52 c0 -5 -7 -3 -15 6 -8 8 -15 18 -15 22 0 3 7 1 15 -6 8 -7 15
-17 15 -22z m2634 -44 c3 -8 2 -12 -4 -9 -6 3 -10 10 -10 16 0 14 7 11 14 -7z
m426 -34 c0 -21 -5 -50 -11 -63 -12 -27 -54 -51 -71 -41 -6 4 4 12 23 18 27 9
35 18 41 46 4 19 5 45 3 58 -3 12 -1 22 5 22 5 0 10 -18 10 -40z m917 -82 c-3
-7 -5 -2 -5 12 0 14 2 19 5 13 2 -7 2 -19 0 -25z m-3129 -8 c-13 -21 -48 -28
-48 -10 0 6 9 10 19 10 11 0 23 5 26 10 3 6 8 10 11 10 2 0 -1 -9 -8 -20z
m1782 -10 c-19 -12 -30 -12 -30 -1 0 10 31 20 40 14 2 -2 -2 -8 -10 -13z
m-3540 6 c0 -2 -7 -6 -15 -10 -8 -3 -15 -1 -15 4 0 6 7 10 15 10 8 0 15 -2 15
-4z m915 -6 c-3 -5 -10 -10 -16 -10 -5 0 -9 5 -9 10 0 6 7 10 16 10 8 0 12 -4
9 -10z m395 0 c-20 -13 -50 -13 -50 0 0 6 15 10 33 10 24 0 28 -3 17 -10z
m687 -6 c-3 -3 -12 -4 -19 -1 -8 3 -5 6 6 6 11 1 17 -2 13 -5z"/>
<path d="M7973 6755 c0 -22 2 -30 4 -17 2 12 2 30 0 40 -3 9 -5 -1 -4 -23z"/>
<path d="M2630 4279 c0 -5 5 -7 10 -4 6 3 10 8 10 11 0 2 -4 4 -10 4 -5 0 -10
-5 -10 -11z"/>
<path d="M2038 3683 c7 -3 16 -2 19 1 4 3 -2 6 -13 5 -11 0 -14 -3 -6 -6z"/>
<path d="M8010 4638 c0 -23 3 -29 9 -19 8 12 4 51 -5 51 -2 0 -4 -15 -4 -32z"/>
<path d="M8010 4590 c0 -5 5 -10 11 -10 5 0 7 5 4 10 -3 6 -8 10 -11 10 -2 0
-4 -4 -4 -10z"/>
<path d="M8018 4518 c5 -89 9 -97 11 -20 0 39 -2 72 -6 72 -5 0 -7 -24 -5 -52z"/>
<path d="M4165 4240 c-22 -10 -118 -52 -213 -93 -95 -41 -189 -88 -208 -102
-46 -35 -90 -105 -110 -173 -18 -61 -22 -169 -8 -195 8 -14 10 -5 8 40 -3 56
-2 56 5 13 11 -65 26 -95 58 -118 98 -70 233 -37 365 89 32 30 58 59 58 64 0
5 7 16 15 25 9 10 29 55 45 101 26 74 30 102 34 227 2 78 1 142 -2 141 -4 0
-25 -9 -47 -19z m6 -25 c-42 -19 -50 -19 -25 0 10 8 28 14 39 14 14 0 10 -4
-14 -14z"/>
<path d="M3617 3509 c7 -7 15 -10 18 -7 3 3 -2 9 -12 12 -14 6 -15 5 -6 -5z"/>
<path d="M6935 4197 c-211 -87 -263 -114 -319 -166 -55 -52 -88 -117 -107
-210 -12 -65 -8 -136 10 -154 9 -9 9 -3 1 20 -7 17 -10 44 -8 60 3 21 6 16 13
-25 14 -94 73 -142 173 -142 76 0 175 48 249 120 68 68 129 186 137 265 12
133 18 295 10 294 -5 0 -76 -28 -159 -62z m130 23 c-3 -5 -14 -10 -23 -10 -15
0 -15 2 -2 10 20 13 33 13 25 0z m-528 -382 c-3 -8 -6 -5 -6 6 -1 11 2 17 5
13 3 -3 4 -12 1 -19z m-10 -50 c-3 -7 -5 -2 -5 12 0 14 2 19 5 13 2 -7 2 -19
0 -25z"/>
<path d="M6330 3869 c-7 -11 -10 -23 -7 -25 2 -2 9 7 15 21 14 30 7 33 -8 4z"/>
<path d="M7356 2755 c-3 -8 -1 -15 4 -15 6 0 10 7 10 15 0 8 -2 15 -4 15 -2 0
-6 -7 -10 -15z"/>
<path d="M7353 2665 c0 -8 4 -15 9 -15 4 0 8 7 8 15 0 8 -4 15 -8 15 -5 0 -9
-7 -9 -15z"/>
<path d="M7359 2638 c-6 -21 -5 -39 2 -44 5 -3 9 6 9 20 0 21 -7 36 -11 24z"/>
<path d="M6191 2864 c2 -20 0 -29 -37 -117 -13 -32 -24 -60 -24 -63 0 -2 19
-4 43 -4 24 0 47 -4 53 -9 5 -5 25 -12 44 -16 35 -7 35 -7 14 11 -11 11 -19
25 -17 32 3 6 -1 12 -7 12 -7 0 -9 8 -5 21 5 15 4 19 -4 15 -6 -4 -15 4 -21
20 -8 21 -8 29 2 36 12 7 4 12 -14 9 -5 0 -8 4 -8 9 0 6 5 10 11 10 8 0 7 6
-2 17 -8 9 -13 19 -11 22 2 3 -2 7 -8 9 -7 3 -11 -4 -9 -14z"/>
<path d="M6789 2913 c-1 -13 -1 -136 0 -160 1 -21 6 -23 56 -23 60 0 95 22 95
60 0 25 9 26 25 3 12 -16 13 -15 12 10 -1 16 -7 25 -14 23 -7 -3 -17 10 -23
30 -6 18 -21 41 -33 49 -22 15 -116 21 -118 8z"/>
<path d="M6723 2845 c0 -8 4 -12 9 -9 4 3 8 9 8 15 0 5 -4 9 -8 9 -5 0 -9 -7
-9 -15z"/>
<path d="M6724 2791 c1 -43 13 -47 14 -6 1 19 -2 35 -6 35 -5 0 -8 -13 -8 -29z"/>
<path d="M3436 2555 c-9 -26 -7 -32 5 -12 6 10 9 21 6 23 -2 3 -7 -2 -11 -11z"/>
</g>
</svg>
